name rise45.9887peak57.8056fall74.9286.mot
datacolumns 19
datarows 32
range 6.10498000000000 6.15665000000000
endheader
time	ground_force1_vx	ground_force1_vy	ground_force1_vz	ground_force1_px	ground_force1_py	ground_force1_pz	ground_force2_vx	ground_force2_vy	ground_force2_vz	ground_force2_px	ground_force2_py	ground_force2_pz	ground_torque1_x	ground_torque1_y	ground_torque1_z	ground_torque2_x	ground_torque2_y	ground_torque2_z	
6.10498000000000	-37.30051000000000	796.13570800000002	56.83548400000000	0.14663000000000	0.00000000000000	0.09743100000000	-6.55042400000000	52.03796600000000	-0.81804000000000	0.36764100000000	0.00000000000000	-0.10010300000000	0.00000000000000	25.00091300000000	0.00000000000000	0.00000000000000	-2.15666900000000	0.00000000000000	
6.10664900000000	-37.61928400000000	795.00028899999995	56.66109300000000	0.14595100000000	0.00000000000000	0.09725400000000	-7.06498600000000	58.17428600000000	-0.84951600000000	0.37196900000000	0.00000000000000	-0.09988800000000	0.00000000000000	24.87710900000000	0.00000000000000	0.00000000000000	-2.28981700000000	0.00000000000000	
6.10831600000000	-37.94650000000000	793.76473499999997	56.46534800000000	0.14528700000000	0.00000000000000	0.09707300000000	-7.49020300000000	64.10916300000000	-0.86531500000000	0.37607400000000	0.00000000000000	-0.09967400000000	0.00000000000000	24.75005400000000	0.00000000000000	0.00000000000000	-2.38710700000000	0.00000000000000	
6.10998300000000	-38.28294100000000	792.42724199999998	56.24802200000000	0.14463800000000	0.00000000000000	0.09688800000000	-7.82032000000000	69.80371000000000	-0.86597000000000	0.37997000000000	0.00000000000000	-0.09946300000000	0.00000000000000	24.61991600000000	0.00000000000000	0.00000000000000	-2.44765700000000	0.00000000000000	
6.11164600000000	-38.62936900000000	790.98603000000003	56.00892800000000	0.14400600000000	0.00000000000000	0.09670000000000	-8.05403200000000	75.24499400000001	-0.85279100000000	0.38367000000000	0.00000000000000	-0.09925600000000	0.00000000000000	24.48686700000000	0.00000000000000	0.00000000000000	-2.47233300000000	0.00000000000000	
6.11331700000000	-38.98652300000000	789.43933900000002	55.74792400000000	0.14338800000000	0.00000000000000	0.09650800000000	-8.19387700000000	80.44318900000000	-0.82772100000000	0.38718400000000	0.00000000000000	-0.09905400000000	0.00000000000000	24.35107300000000	0.00000000000000	0.00000000000000	-2.46347400000000	0.00000000000000	
6.11498200000000	-39.35511500000000	787.78542700000003	55.46491100000000	0.14278400000000	0.00000000000000	0.09631300000000	-8.24541700000000	85.42733200000001	-0.79315600000000	0.39052200000000	0.00000000000000	-0.09885600000000	0.00000000000000	24.21270300000000	0.00000000000000	0.00000000000000	-2.42455000000000	0.00000000000000	
6.11664600000000	-39.73582200000000	786.02256499999999	55.15983700000000	0.14219400000000	0.00000000000000	0.09611500000000	-8.21632400000000	90.24026300000000	-0.75176300000000	0.39369000000000	0.00000000000000	-0.09866500000000	0.00000000000000	24.07192000000000	0.00000000000000	0.00000000000000	-2.35978100000000	0.00000000000000	
6.11831700000000	-40.12928500000000	784.14903500000003	54.83269400000000	0.14161600000000	0.00000000000000	0.09591300000000	-8.11545400000000	94.93330500000000	-0.70630300000000	0.39669500000000	0.00000000000000	-0.09848100000000	0.00000000000000	23.92888700000000	0.00000000000000	0.00000000000000	-2.27376400000000	0.00000000000000	
6.11997600000000	-40.53610100000000	782.16312900000003	54.48351900000000	0.14105100000000	0.00000000000000	0.09570800000000	-7.95199100000000	99.56117900000000	-0.65948300000000	0.39954200000000	0.00000000000000	-0.09830400000000	0.00000000000000	23.78376100000000	0.00000000000000	0.00000000000000	-2.17113500000000	0.00000000000000	
6.12164600000000	-40.95681900000000	780.06314499999996	54.11239600000000	0.14049600000000	0.00000000000000	0.09550000000000	-7.73471200000000	104.17750599999999	-0.61383000000000	0.40223600000000	0.00000000000000	-0.09813400000000	0.00000000000000	23.63669700000000	0.00000000000000	0.00000000000000	-2.05628800000000	0.00000000000000	
6.12331300000000	-41.39193400000000	777.84738600000003	53.71945000000000	0.13995100000000	0.00000000000000	0.09528800000000	-7.47141900000000	108.83114600000000	-0.57160500000000	0.40478100000000	0.00000000000000	-0.09797300000000	0.00000000000000	23.48784400000000	0.00000000000000	0.00000000000000	-1.93315600000000	0.00000000000000	
6.12498300000000	-41.84188300000000	775.51415599999996	53.30485500000000	0.13941400000000	0.00000000000000	0.09507400000000	-7.16854900000000	113.56352400000000	-0.53474900000000	0.40718000000000	0.00000000000000	-0.09782000000000	0.00000000000000	23.33734800000000	0.00000000000000	0.00000000000000	-1.80507400000000	0.00000000000000	
6.12664400000000	-42.30704000000000	773.06175800000005	52.86882600000000	0.13888500000000	0.00000000000000	0.09485700000000	-6.83094900000000	118.40696000000000	-0.50486000000000	0.40943700000000	0.00000000000000	-0.09767600000000	0.00000000000000	23.18534900000000	0.00000000000000	0.00000000000000	-1.67470100000000	0.00000000000000	
6.12831000000000	-42.78770900000000	770.48849700000005	52.41162300000000	0.13836200000000	0.00000000000000	0.09463600000000	-6.46182900000000	123.38395300000001	-0.48320400000000	0.41155400000000	0.00000000000000	-0.09754100000000	0.00000000000000	23.03197900000000	0.00000000000000	0.00000000000000	-1.54401900000000	0.00000000000000	
6.12997500000000	-43.28412100000000	767.79267300000004	51.93355000000000	0.13784300000000	0.00000000000000	0.09441400000000	-6.06283600000000	128.50730600000000	-0.47074400000000	0.41353400000000	0.00000000000000	-0.09741500000000	0.00000000000000	22.87736800000000	0.00000000000000	0.00000000000000	-1.41437100000000	0.00000000000000	
6.13164300000000	-43.79642800000000	764.97258399999998	51.43494900000000	0.13732800000000	0.00000000000000	0.09418800000000	-5.63424500000000	133.78091699999999	-0.46818500000000	0.41537900000000	0.00000000000000	-0.09729800000000	0.00000000000000	22.72163600000000	0.00000000000000	0.00000000000000	-1.28654600000000	0.00000000000000	
6.13331200000000	-44.32470000000000	762.02652499999999	50.91620700000000	0.13681400000000	0.00000000000000	0.09396100000000	-5.17521400000000	139.20106699999999	-0.47602900000000	0.41709200000000	0.00000000000000	-0.09719100000000	0.00000000000000	22.56489800000000	0.00000000000000	0.00000000000000	-1.16089100000000	0.00000000000000	
6.13497900000000	-44.86891800000000	758.95278599999995	50.37774900000000	0.13630000000000	0.00000000000000	0.09373100000000	-4.68408300000000	144.75800799999999	-0.49463800000000	0.41867500000000	0.00000000000000	-0.09709300000000	0.00000000000000	22.40726200000000	0.00000000000000	0.00000000000000	-1.03742500000000	0.00000000000000	
6.13664600000000	-45.42897300000000	755.74965499999996	49.82003800000000	0.13578500000000	0.00000000000000	0.09349900000000	-4.15868500000000	150.43768200000000	-0.52428600000000	0.42013100000000	0.00000000000000	-0.09700600000000	0.00000000000000	22.24882700000000	0.00000000000000	0.00000000000000	-0.91596900000000	0.00000000000000	
6.13831600000000	-46.00465700000000	752.41541900000004	49.24357500000000	0.13526700000000	0.00000000000000	0.09326500000000	-3.59663600000000	156.22341499999999	-0.56521300000000	0.42146000000000	0.00000000000000	-0.09692800000000	0.00000000000000	22.08968500000000	0.00000000000000	0.00000000000000	-0.79625300000000	0.00000000000000	
6.13998000000000	-46.59566500000000	748.94836099999998	48.64889500000000	0.13474400000000	0.00000000000000	0.09302900000000	-2.99559700000000	162.09746699999999	-0.61766600000000	0.42266600000000	0.00000000000000	-0.09686000000000	0.00000000000000	21.92992200000000	0.00000000000000	0.00000000000000	-0.67801900000000	0.00000000000000	
6.14164200000000	-47.20158900000000	745.34676800000000	48.03656900000000	0.13421500000000	0.00000000000000	0.09279300000000	-2.35348700000000	168.04236299999999	-0.68193400000000	0.42375100000000	0.00000000000000	-0.09680200000000	0.00000000000000	21.76961200000000	0.00000000000000	0.00000000000000	-0.56109200000000	0.00000000000000	
6.14330700000000	-47.82191300000000	741.60892799999999	47.40719800000000	0.13367900000000	0.00000000000000	0.09255400000000	-1.66864400000000	174.04192300000000	-0.75836500000000	0.42471600000000	0.00000000000000	-0.09675400000000	0.00000000000000	21.60882300000000	0.00000000000000	0.00000000000000	-0.44544500000000	0.00000000000000	
6.14499300000000	-48.45601700000000	737.73313800000005	46.76141500000000	0.13313200000000	0.00000000000000	0.09231500000000	-0.93992900000000	180.08200900000000	-0.84738100000000	0.42556400000000	0.00000000000000	-0.09671600000000	0.00000000000000	21.44761400000000	0.00000000000000	0.00000000000000	-0.33121900000000	0.00000000000000	
6.14664600000000	-49.10316600000000	733.71770300000003	46.09988100000000	0.13257500000000	0.00000000000000	0.09207500000000	-0.16678300000000	186.15095800000000	-0.94947600000000	0.42629700000000	0.00000000000000	-0.09668800000000	0.00000000000000	21.28603500000000	0.00000000000000	0.00000000000000	-0.21874900000000	0.00000000000000	
6.14831100000000	-49.76251600000000	729.56094199999995	45.42328200000000	0.13200500000000	0.00000000000000	0.09183300000000	0.65077200000000	192.23975500000000	-1.06521300000000	0.42691800000000	0.00000000000000	-0.09667000000000	0.00000000000000	21.12412400000000	0.00000000000000	0.00000000000000	-0.10854700000000	0.00000000000000	
6.14997900000000	-50.43310900000000	725.26119600000004	44.73232900000000	0.13142100000000	0.00000000000000	0.09159200000000	1.51215700000000	198.34196800000001	-1.19520700000000	0.42742900000000	0.00000000000000	-0.09666100000000	0.00000000000000	20.96191400000000	0.00000000000000	0.00000000000000	-0.00129200000000	0.00000000000000	
6.15165000000000	-51.11387300000000	720.81682899999998	44.02775700000000	0.13082200000000	0.00000000000000	0.09135000000000	2.41629900000000	204.45350999999999	-1.34011300000000	0.42783300000000	0.00000000000000	-0.09666300000000	0.00000000000000	20.79942400000000	0.00000000000000	0.00000000000000	0.10220800000000	0.00000000000000	
6.15331600000000	-51.80362200000000	716.22623999999996	43.31031800000000	0.13020500000000	0.00000000000000	0.09110800000000	3.36170600000000	210.57228000000001	-1.50060500000000	0.42813200000000	0.00000000000000	-0.09667300000000	0.00000000000000	20.63666600000000	0.00000000000000	0.00000000000000	0.20104400000000	0.00000000000000	
6.15497600000000	-52.50105900000000	711.48786700000005	42.58078300000000	0.12957000000000	0.00000000000000	0.09086600000000	4.34655400000000	216.69772499999999	-1.67735700000000	0.42832900000000	0.00000000000000	-0.09669300000000	0.00000000000000	20.47364000000000	0.00000000000000	0.00000000000000	0.29424800000000	0.00000000000000	
6.15665000000000	-53.20477300000000	706.60019899999998	41.83994000000000	0.12891600000000	0.00000000000000	0.09062500000000	5.36877300000000	222.83038300000001	-1.87102600000000	0.42842600000000	0.00000000000000	-0.09672200000000	0.00000000000000	20.31033600000000	0.00000000000000	0.00000000000000	0.38082900000000	0.00000000000000	
